<svg width="719" height="645" viewBox="0 0 719 645" fill="none" xmlns="http://www.w3.org/2000/svg">
<g clip-path="url(#clip0_109_893)">
<path d="M0 10C0 4.47716 4.47715 0 10 0H709C714.523 0 719 4.47715 719 10V645H0V10Z" fill="#0E1212"/>
<path d="M0 8C0 2.47715 4.47715 -2 10 -2H709C714.523 -2 719 2.47715 719 8V33H0V8Z" fill="black"/>
<path d="M25 14.5C25 18.0899 22.0899 21 18.5 21C14.9101 21 12 18.0899 12 14.5C12 10.9101 14.9101 8 18.5 8C22.0899 8 25 10.9101 25 14.5Z" fill="#BB493C"/>
<path d="M47 14.5C47 18.0899 44.0899 21 40.5 21C36.9101 21 34 18.0899 34 14.5C34 10.9101 36.9101 8 40.5 8C44.0899 8 47 10.9101 47 14.5Z" fill="#DDB456"/>
<path d="M69 14.5C69 18.0899 66.0899 21 62.5 21C58.9101 21 56 18.0899 56 14.5C56 10.9101 58.9101 8 62.5 8C66.0899 8 69 10.9101 69 14.5Z" fill="#78C08C"/>
<rect width="51" height="612" transform="translate(0 33)" fill="#182125"/>
<path d="M10 59.7333C10.248 59.739 10.496 59.7445 10.744 59.75C10.9093 59.7536 11.0747 59.7572 11.24 59.7608C11.4053 59.7643 11.5707 59.7679 11.736 59.7713C11.8887 59.7745 12.0415 59.7777 12.1942 59.7808C12.2068 59.7811 12.2194 59.7814 12.232 59.7816C12.3973 59.785 12.5627 59.7883 12.728 59.7916C12.8933 59.7949 13.0587 59.7982 13.224 59.8014C13.3893 59.8046 13.5547 59.8078 13.72 59.8109C13.8853 59.814 14.0507 59.8171 14.216 59.8202C14.3813 59.8232 14.5467 59.8262 14.712 59.8292C14.8773 59.8321 15.0427 59.8351 15.208 59.8379C15.3733 59.8408 15.5387 59.8436 15.704 59.8464C16.0459 59.8521 16.3901 59.7811 16.7038 59.639C16.7196 59.6318 16.7354 59.6247 16.7513 59.6175C16.9178 59.5424 17.0844 59.4671 17.2509 59.3919C17.4174 59.3166 17.5839 59.2413 17.7504 59.166C17.8678 59.1128 17.9852 59.0597 18.1025 59.0065C18.1789 58.9722 18.2626 58.9551 18.3456 58.9566C18.5095 58.9588 18.669 59.0365 18.7708 59.1617C18.7811 59.1742 18.7914 59.1866 18.8017 59.1991C18.8831 59.2974 18.9645 59.3957 19.0459 59.494C19.1273 59.5922 19.2088 59.6906 19.2902 59.7888C19.3717 59.8871 19.4531 59.9852 19.5346 60.0835C19.6162 60.1817 19.6976 60.2798 19.7792 60.3781C19.8608 60.4763 19.9422 60.5743 20.0239 60.6726C20.1055 60.7708 20.187 60.8688 20.2686 60.967C20.3502 61.065 20.4319 61.1633 20.5135 61.2613L20.5287 61.2772C20.5509 61.2985 20.5731 61.3199 20.5954 61.3413C20.745 61.4852 20.9512 61.569 21.16 61.5699C21.3664 61.5722 21.581 61.4938 21.7339 61.3382C21.9673 61.1048 22.1821 60.8345 22.3429 60.5348C22.9168 59.4681 23.0148 58.283 23.3706 57.2421C23.47 56.9487 23.6103 56.6578 23.749 56.355C23.7793 56.2877 23.8499 56.2433 23.9184 56.2448C23.9745 56.2449 24.0295 56.2739 24.061 56.3198C24.1016 56.3774 24.1422 56.435 24.1828 56.4926L24.1671 56.4674C24.2997 56.7202 24.4344 56.9932 24.5199 57.2446C24.5636 57.3803 24.6024 57.5388 24.6368 57.6882C24.7214 58.0086 24.8038 58.3197 24.8864 58.6309C24.8992 58.6877 24.9141 58.7532 24.929 58.8187C24.9451 58.8893 24.9612 58.9599 24.9773 59.0305C25.0083 59.1666 25.0394 59.3027 25.0704 59.4388C25.1015 59.5749 25.1327 59.711 25.1638 59.8471C25.195 59.9831 25.2261 60.1192 25.2573 60.2553C25.2885 60.3913 25.3198 60.5274 25.3511 60.6634C25.3823 60.7995 25.4136 60.9355 25.4449 61.0716C25.4763 61.2076 25.5076 61.3436 25.539 61.4797C25.6062 61.7713 25.7123 62.0538 25.8536 62.3174C25.8709 62.3496 25.8881 62.3818 25.9054 62.414C25.9729 62.5399 26.0404 62.6657 26.108 62.7915C26.1516 62.873 26.2087 62.9473 26.2762 63.0104C26.4315 63.1565 26.6436 63.2397 26.8564 63.2382C26.8615 63.2382 26.8665 63.2382 26.8716 63.2382C27.0844 63.2381 27.2952 63.1535 27.4486 63.007C27.5153 62.9438 27.5715 62.8696 27.6142 62.7884C27.6601 62.7009 27.7059 62.6135 27.7517 62.526C27.813 62.409 27.8743 62.2919 27.9356 62.1749C27.9968 62.0578 28.0581 61.9407 28.1193 61.8236C28.1805 61.7066 28.2417 61.5895 28.3028 61.4723C28.364 61.3552 28.4251 61.2381 28.4863 61.121C28.5474 61.0038 28.6085 60.8867 28.6695 60.7695C28.7306 60.6524 28.7916 60.5352 28.8527 60.418C28.9137 60.3008 28.9747 60.1836 29.0356 60.0664C29.0966 59.9492 29.1576 59.8319 29.2185 59.7147C29.2794 59.5975 29.3403 59.4802 29.4012 59.3629C29.4225 59.3219 29.4438 59.2808 29.4651 59.2397C29.5354 59.1038 29.6236 58.9769 29.7268 58.8634C29.7506 58.8373 29.7743 58.8113 29.798 58.7852C29.9024 58.6702 30.0292 58.575 30.1696 58.5069C30.1904 58.4968 30.2111 58.4868 30.2318 58.4768C30.3275 58.43 30.4338 58.4046 30.541 58.4031C30.6907 58.4007 30.8415 58.4459 30.9661 58.5314C31.0529 58.5911 31.1397 58.6508 31.2266 58.7104C31.3265 58.7837 31.4308 58.8602 31.5351 58.9367C31.6395 59.0131 31.7438 59.0896 31.8482 59.166C31.9525 59.2424 32.0569 59.3188 32.1613 59.3951C32.3841 59.5587 32.6388 59.6774 32.9059 59.7427C32.9631 59.7567 33.0204 59.7707 33.0777 59.7847C33.3242 59.8451 33.578 59.8737 33.8309 59.87C33.8439 59.8698 33.857 59.8696 33.87 59.8694C34.0043 59.8673 34.1387 59.8652 34.273 59.8631C34.4073 59.861 34.5417 59.8589 34.676 59.8567C34.8103 59.8545 34.9447 59.8523 35.079 59.8501C35.2133 59.8478 35.3477 59.8456 35.482 59.8433C35.6163 59.841 35.7507 59.8387 35.885 59.8363C36.0193 59.834 36.1537 59.8316 36.288 59.8292C36.4223 59.8268 36.5567 59.8243 36.691 59.8219C36.8253 59.8194 36.9597 59.8169 37.094 59.8144C37.2283 59.8119 37.3627 59.8094 37.497 59.8068C37.6313 59.8042 37.7657 59.8016 37.9 59.799C38.0343 59.7964 38.1687 59.7937 38.303 59.791C38.4373 59.7883 38.5717 59.7856 38.706 59.7829C38.7393 59.7822 38.7725 59.7815 38.8058 59.7808C38.9069 59.7788 39.0079 59.7767 39.109 59.7746C39.2433 59.7718 39.3777 59.7689 39.512 59.7661C40.008 59.7556 40.504 59.7446 41 59.7333C40.504 59.722 40.008 59.7111 39.512 59.7006C39.3777 59.6977 39.2433 59.6949 39.109 59.6921C39.0079 59.69 38.9069 59.6879 38.8058 59.6858C38.7725 59.6852 38.7393 59.6845 38.706 59.6838C38.5717 59.6811 38.4373 59.6783 38.303 59.6757C38.1687 59.673 38.0343 59.6703 37.9 59.6677C37.7657 59.6651 37.6313 59.6625 37.497 59.6599C37.3627 59.6573 37.2283 59.6548 37.094 59.6522C36.9597 59.6497 36.8253 59.6472 36.691 59.6448C36.5567 59.6423 36.4223 59.6399 36.288 59.6375C36.1537 59.6351 36.0193 59.6327 35.885 59.6304C35.7507 59.628 35.6163 59.6257 35.482 59.6234C35.3477 59.6211 35.2133 59.6188 35.079 59.6166C34.9447 59.6144 34.8103 59.6122 34.676 59.61C34.5417 59.6078 34.4073 59.6057 34.273 59.6035C34.1387 59.6014 34.0043 59.5993 33.87 59.5973C33.857 59.5971 33.8439 59.5969 33.8309 59.5967C33.6012 59.593 33.3724 59.5601 33.1518 59.4991C33.095 59.4835 33.0381 59.4678 32.9813 59.4522C32.7539 59.3895 32.5398 59.282 32.3547 59.1382C32.2524 59.059 32.1501 58.9798 32.0478 58.9007C31.9455 58.8216 31.8432 58.7424 31.7409 58.6633C31.6385 58.5842 31.5362 58.5051 31.4338 58.4261C31.3441 58.3611 31.2588 58.2993 31.1735 58.2375C30.9913 58.1058 30.7672 58.032 30.541 58.0302C30.3792 58.0286 30.2168 58.0632 30.0692 58.1311C30.0483 58.1407 30.0273 58.1502 30.0064 58.1598C30.0064 58.1598 30.0064 58.1598 30.0064 58.1598C29.8201 58.2452 29.65 58.3668 29.5087 58.5161C29.4844 58.5417 29.4601 58.5673 29.4359 58.5928C29.3066 58.7292 29.195 58.8828 29.1052 59.0484C29.0831 59.0891 29.0609 59.1297 29.0388 59.1704C28.9757 59.2865 28.9126 59.4025 28.8495 59.5186C28.7864 59.6347 28.7234 59.7508 28.6604 59.8669C28.5973 59.9831 28.5343 60.0992 28.4713 60.2153C28.4084 60.3315 28.3454 60.4476 28.2825 60.5638C28.2195 60.68 28.1566 60.7962 28.0937 60.9124C28.0309 61.0286 27.968 61.1448 27.9052 61.261C27.8423 61.3772 27.7795 61.4935 27.7167 61.6097C27.6539 61.7259 27.5912 61.8422 27.5284 61.9585C27.4657 62.0747 27.403 62.191 27.3403 62.3073C27.2934 62.3942 27.2466 62.4812 27.1997 62.5681C27.1804 62.6037 27.1552 62.6361 27.1255 62.6636C27.0572 62.7271 26.9643 62.7629 26.8716 62.7618C26.8665 62.7618 26.8615 62.7618 26.8564 62.7618C26.7637 62.7613 26.6721 62.7241 26.6057 62.6602C26.5768 62.6326 26.5525 62.6003 26.5341 62.565C26.4676 62.4387 26.4011 62.3123 26.3346 62.186C26.3175 62.1536 26.3005 62.1213 26.2835 62.0889C26.1642 61.8623 26.075 61.62 26.019 61.3703C25.9884 61.2341 25.9577 61.098 25.9271 60.9618C25.8964 60.8256 25.8657 60.6894 25.8349 60.5532C25.8042 60.4171 25.7734 60.2809 25.7427 60.1447C25.7119 60.0086 25.681 59.8724 25.6502 59.7363C25.6193 59.6001 25.5885 59.464 25.5576 59.3279C25.5266 59.1917 25.4957 59.0556 25.4647 58.9195C25.4487 58.8489 25.4326 58.7782 25.4165 58.7076C25.4016 58.6421 25.3867 58.5766 25.3717 58.5112C25.2869 58.1914 25.204 57.8803 25.1209 57.5693C25.0848 57.4145 25.0472 57.2594 24.9921 57.0888C24.8824 56.7738 24.7468 56.5091 24.6009 56.2326L24.5852 56.2074C24.5443 56.15 24.5035 56.0927 24.4626 56.0353C24.3403 55.8612 24.1307 55.7534 23.9184 55.7552C23.6561 55.7534 23.4089 55.9199 23.3062 56.1544C23.1728 56.4524 23.0271 56.7581 22.9174 57.0912C22.553 58.2125 22.4667 59.3648 21.9611 60.3319C21.8258 60.5938 21.6469 60.8291 21.4365 61.0481C21.3698 61.1192 21.2676 61.1622 21.16 61.1634C21.0537 61.1653 20.9466 61.125 20.8674 61.0522C20.8447 61.0313 20.822 61.0104 20.7993 60.9895L20.8145 61.0054C20.7308 60.9091 20.647 60.8126 20.5634 60.7164C20.4796 60.62 20.396 60.5238 20.3121 60.4274C20.2283 60.3311 20.1447 60.2349 20.0608 60.1386C19.977 60.0423 19.8933 59.9462 19.8094 59.8499C19.7255 59.7536 19.6417 59.6575 19.5578 59.5612C19.474 59.4651 19.39 59.3688 19.3061 59.2727C19.2222 59.1765 19.1383 59.0804 19.0543 58.9843C19.0437 58.9721 19.0331 58.9599 19.0224 58.9478C18.8548 58.753 18.6 58.6392 18.3456 58.6434C18.2166 58.6448 18.0884 58.6751 17.973 58.7311C17.8572 58.7876 17.7414 58.8442 17.6256 58.9007C17.4614 58.9809 17.2972 59.0612 17.1331 59.1415C16.9689 59.2217 16.8048 59.3021 16.6407 59.3825C16.6251 59.3901 16.6095 59.3978 16.5939 59.4054C16.3189 59.5407 16.0128 59.615 15.704 59.6202C15.5387 59.623 15.3733 59.6259 15.208 59.6287C15.0427 59.6316 14.8773 59.6345 14.712 59.6375C14.5467 59.6404 14.3813 59.6434 14.216 59.6465C14.0507 59.6495 13.8853 59.6526 13.72 59.6557C13.5547 59.6589 13.3893 59.662 13.224 59.6653C13.0587 59.6685 12.8933 59.6717 12.728 59.675C12.5627 59.6783 12.3973 59.6817 12.232 59.6851C12.2194 59.6853 12.2068 59.6856 12.1942 59.6858C12.0415 59.689 11.8887 59.6921 11.736 59.6953C11.5707 59.6988 11.4053 59.7023 11.24 59.7059C11.0747 59.7094 10.9093 59.713 10.744 59.7167C10.496 59.7221 10.248 59.7277 10 59.7333Z" fill="url(#paint0_linear_109_893)"/>
<path d="M8.6392 54V48.1818H10.7131C11.1657 48.1818 11.5407 48.2642 11.8381 48.429C12.1354 48.5937 12.358 48.8191 12.5057 49.1051C12.6534 49.3892 12.7273 49.7093 12.7273 50.0653C12.7273 50.4233 12.6525 50.7453 12.5028 51.0312C12.3551 51.3153 12.1316 51.5407 11.8324 51.7074C11.535 51.8722 11.161 51.9545 10.7102 51.9545H9.28409V51.2102H10.6307C10.9167 51.2102 11.1487 51.161 11.3267 51.0625C11.5047 50.9621 11.6354 50.8258 11.7188 50.6534C11.8021 50.4811 11.8438 50.285 11.8438 50.0653C11.8438 49.8456 11.8021 49.6506 11.7188 49.4801C11.6354 49.3097 11.5038 49.1761 11.3239 49.0795C11.1458 48.983 10.911 48.9347 10.6193 48.9347H9.51705V54H8.6392ZM16.2124 52.1903V49.6364H17.0647V54H16.2295V53.2443H16.184C16.0836 53.4773 15.9226 53.6714 15.7011 53.8267C15.4814 53.9801 15.2077 54.0568 14.88 54.0568C14.5997 54.0568 14.3516 53.9953 14.1357 53.8722C13.9217 53.7472 13.7531 53.5625 13.63 53.3182C13.5088 53.0739 13.4482 52.7718 13.4482 52.4119V49.6364H14.2976V52.3097C14.2976 52.607 14.38 52.8437 14.5448 53.0199C14.7096 53.196 14.9236 53.2841 15.1868 53.2841C15.3459 53.2841 15.5041 53.2443 15.6613 53.1648C15.8204 53.0852 15.952 52.965 16.0562 52.804C16.1622 52.643 16.2143 52.4384 16.2124 52.1903ZM18.8155 48.1818V54H17.966V48.1818H18.8155ZM22.9881 50.7017L22.2182 50.8381C22.186 50.7396 22.1349 50.6458 22.0648 50.5568C21.9966 50.4678 21.9038 50.3949 21.7864 50.3381C21.669 50.2812 21.5222 50.2528 21.3461 50.2528C21.1055 50.2528 20.9048 50.3068 20.7438 50.4148C20.5828 50.5208 20.5023 50.6581 20.5023 50.8267C20.5023 50.9725 20.5563 51.09 20.6642 51.179C20.7722 51.268 20.9464 51.3409 21.187 51.3977L21.8801 51.5568C22.2817 51.6496 22.5809 51.7926 22.7779 51.9858C22.9748 52.179 23.0733 52.4299 23.0733 52.7386C23.0733 53 22.9976 53.233 22.8461 53.4375C22.6964 53.6402 22.4871 53.7992 22.2182 53.9148C21.9512 54.0303 21.6415 54.0881 21.2892 54.0881C20.8006 54.0881 20.4019 53.9839 20.0932 53.7756C19.7845 53.5653 19.5951 53.267 19.525 52.8807L20.3461 52.7557C20.3972 52.9697 20.5023 53.1316 20.6614 53.2415C20.8205 53.3494 21.0279 53.4034 21.2836 53.4034C21.562 53.4034 21.7845 53.3456 21.9512 53.2301C22.1178 53.1127 22.2012 52.9697 22.2012 52.8011C22.2012 52.6648 22.15 52.5502 22.0478 52.4574C21.9474 52.3646 21.793 52.2945 21.5847 52.2472L20.8461 52.0852C20.4389 51.9924 20.1377 51.8447 19.9426 51.642C19.7495 51.4394 19.6529 51.1828 19.6529 50.8722C19.6529 50.6146 19.7248 50.3892 19.8688 50.196C20.0127 50.0028 20.2116 49.8523 20.4654 49.7443C20.7192 49.6345 21.0099 49.5795 21.3375 49.5795C21.8091 49.5795 22.1803 49.6818 22.4512 49.8864C22.722 50.089 22.901 50.3608 22.9881 50.7017ZM25.648 54.0881C25.218 54.0881 24.8478 53.9962 24.5372 53.8125C24.2284 53.6269 23.9898 53.3665 23.8212 53.0312C23.6546 52.6941 23.5712 52.2992 23.5712 51.8466C23.5712 51.3996 23.6546 51.0057 23.8212 50.6648C23.9898 50.3239 24.2247 50.0578 24.5258 49.8665C24.8288 49.6752 25.183 49.5795 25.5883 49.5795C25.8345 49.5795 26.0731 49.6203 26.3042 49.7017C26.5353 49.7831 26.7427 49.911 26.9264 50.0852C27.1101 50.2595 27.255 50.4858 27.361 50.7642C27.4671 51.0407 27.5201 51.3769 27.5201 51.7727V52.0739H24.0514V51.4375H26.6877C26.6877 51.214 26.6423 51.0161 26.5514 50.8438C26.4605 50.6695 26.3326 50.5322 26.1678 50.4318C26.005 50.3314 25.8137 50.2812 25.594 50.2812C25.3553 50.2812 25.147 50.34 24.969 50.4574C24.7928 50.5729 24.6565 50.7244 24.5599 50.9119C24.4652 51.0975 24.4178 51.2992 24.4178 51.517V52.0142C24.4178 52.3059 24.469 52.554 24.5712 52.7585C24.6754 52.9631 24.8203 53.1193 25.0059 53.2273C25.1915 53.3333 25.4084 53.3864 25.6565 53.3864C25.8175 53.3864 25.9642 53.3636 26.0968 53.3182C26.2294 53.2708 26.344 53.2008 26.4406 53.108C26.5372 53.0152 26.611 52.9006 26.6622 52.7642L27.4661 52.9091C27.4017 53.1458 27.2862 53.3532 27.1195 53.5312C26.9548 53.7074 26.7474 53.8447 26.4974 53.9432C26.2493 54.0398 25.9661 54.0881 25.648 54.0881ZM32.2283 50.0199C32.1733 49.8475 32.0995 49.6932 32.0067 49.5568C31.9158 49.4186 31.8069 49.3011 31.68 49.2045C31.5531 49.1061 31.4082 49.0312 31.2453 48.9801C31.0843 48.929 30.9072 48.9034 30.7141 48.9034C30.3864 48.9034 30.091 48.9877 29.8277 49.1562C29.5644 49.3248 29.3561 49.572 29.2027 49.8977C29.0512 50.2216 28.9754 50.6184 28.9754 51.0881C28.9754 51.5597 29.0521 51.9583 29.2055 52.2841C29.3589 52.6098 29.5692 52.857 29.8362 53.0256C30.1033 53.1941 30.4072 53.2784 30.7482 53.2784C31.0644 53.2784 31.34 53.214 31.5749 53.0852C31.8116 52.9564 31.9944 52.7746 32.1232 52.5398C32.2538 52.303 32.3192 52.0246 32.3192 51.7045L32.5464 51.7472H30.8817V51.0227H33.1686V51.6847C33.1686 52.1733 33.0644 52.5975 32.8561 52.9574C32.6497 53.3153 32.3637 53.5919 31.9982 53.7869C31.6345 53.982 31.2178 54.0795 30.7482 54.0795C30.2216 54.0795 29.7595 53.9583 29.3618 53.7159C28.966 53.4735 28.6572 53.1297 28.4357 52.6847C28.2141 52.2377 28.1033 51.7074 28.1033 51.0938C28.1033 50.6297 28.1677 50.2131 28.2964 49.8438C28.4252 49.4744 28.6061 49.161 28.8391 48.9034C29.0739 48.6439 29.3495 48.446 29.6658 48.3097C29.9839 48.1714 30.3315 48.1023 30.7084 48.1023C31.0228 48.1023 31.3154 48.1487 31.5862 48.2415C31.8589 48.3343 32.1014 48.4659 32.3135 48.6364C32.5275 48.8068 32.7046 49.0095 32.8447 49.2443C32.9849 49.4773 33.0796 49.7358 33.1288 50.0199H32.2283ZM33.9748 54V49.6364H34.7958V50.3295H34.8412C34.9208 50.0947 35.0609 49.91 35.2617 49.7756C35.4644 49.6392 35.6935 49.571 35.9492 49.571C36.0022 49.571 36.0647 49.5729 36.1367 49.5767C36.2106 49.5805 36.2683 49.5852 36.31 49.5909V50.4034C36.2759 50.3939 36.2153 50.3835 36.1282 50.3722C36.0411 50.3589 35.9539 50.3523 35.8668 50.3523C35.6661 50.3523 35.4871 50.3949 35.3299 50.4801C35.1746 50.5634 35.0515 50.6799 34.9606 50.8295C34.8697 50.9773 34.8242 51.1458 34.8242 51.3352V54H33.9748ZM36.8051 54V49.6364H37.6545V54H36.8051ZM37.2341 48.9631C37.0863 48.9631 36.9594 48.9138 36.8534 48.8153C36.7492 48.715 36.6971 48.5956 36.6971 48.4574C36.6971 48.3172 36.7492 48.1979 36.8534 48.0994C36.9594 47.9991 37.0863 47.9489 37.2341 47.9489C37.3818 47.9489 37.5077 47.9991 37.6119 48.0994C37.718 48.1979 37.771 48.3172 37.771 48.4574C37.771 48.5956 37.718 48.715 37.6119 48.8153C37.5077 48.9138 37.3818 48.9631 37.2341 48.9631ZM40.1908 54.0852C39.8385 54.0852 39.5241 53.9953 39.2476 53.8153C38.973 53.6335 38.7571 53.375 38.5999 53.0398C38.4446 52.7027 38.3669 52.2983 38.3669 51.8267C38.3669 51.3551 38.4455 50.9517 38.6027 50.6165C38.7618 50.2812 38.9796 50.0246 39.2561 49.8466C39.5327 49.6686 39.8461 49.5795 40.1965 49.5795C40.4673 49.5795 40.6851 49.625 40.8499 49.7159C41.0166 49.8049 41.1453 49.9091 41.2362 50.0284C41.3291 50.1477 41.401 50.2528 41.4522 50.3438H41.5033V48.1818H42.3527V54H41.5232V53.321H41.4522C41.401 53.4138 41.3272 53.5199 41.2306 53.6392C41.1359 53.7585 41.0052 53.8627 40.8385 53.9517C40.6719 54.0407 40.4559 54.0852 40.1908 54.0852ZM40.3783 53.3608C40.6226 53.3608 40.8291 53.2964 40.9976 53.1676C41.1681 53.0369 41.2969 52.8561 41.384 52.625C41.473 52.3939 41.5175 52.125 41.5175 51.8182C41.5175 51.5152 41.4739 51.25 41.3868 51.0227C41.2997 50.7955 41.1719 50.6184 41.0033 50.4915C40.8347 50.3646 40.6264 50.3011 40.3783 50.3011C40.1226 50.3011 39.9095 50.3674 39.7391 50.5C39.5686 50.6326 39.4398 50.8134 39.3527 51.0426C39.2675 51.2718 39.2249 51.5303 39.2249 51.8182C39.2249 52.1098 39.2684 52.3722 39.3556 52.6051C39.4427 52.8381 39.5715 53.0227 39.7419 53.1591C39.9143 53.2936 40.1264 53.3608 40.3783 53.3608Z" fill="url(#paint1_linear_109_893)"/>
<rect x="15" y="81" width="21" height="21" rx="3" fill="#2C3539"/>
<rect x="15" y="120" width="21" height="21" rx="3" fill="#2C3539"/>
<rect x="15" y="159" width="21" height="21" rx="3" fill="#2C3539"/>
<rect x="15" y="198" width="21" height="21" rx="3" fill="#2C3539"/>
<circle cx="25.5" cy="618.5" r="10.5" fill="#2C3539"/>
<rect x="15" y="569" width="21" height="21" rx="3" fill="#2C3539"/>
<rect x="79" y="67" width="119" height="16" rx="5" fill="white"/>
<rect x="88" y="73" width="43" height="5" rx="2.5" fill="#1B1D1C"/>
<rect x="88" y="96" width="67" height="5" rx="2.5" fill="#E4EAEB"/>
<rect x="94" y="113" width="50" height="5" rx="2.5" fill="#797E7F"/>
<rect x="94" y="131" width="59" height="5" rx="2.5" fill="#797E7F"/>
<rect x="94" y="148" width="61" height="5" rx="2.5" fill="#797E7F"/>
<rect x="94" y="166" width="50" height="5" rx="2.5" fill="#797E7F"/>
<rect x="88" y="183" width="67" height="5" rx="2.5" fill="#E4EAEB"/>
<rect x="94" y="201" width="50" height="5" rx="2.5" fill="#797E7F"/>
<rect x="94" y="218" width="59" height="5" rx="2.5" fill="#797E7F"/>
<rect x="94" y="235" width="61" height="5" rx="2.5" fill="#797E7F"/>
<rect x="94" y="253" width="51" height="5" rx="2.5" fill="#797E7F"/>
<rect x="88" y="270" width="67" height="5" rx="2.5" fill="#E4EAEB"/>
<rect x="94" y="288" width="51" height="5" rx="2.5" fill="#797E7F"/>
<rect x="94" y="305" width="59" height="5" rx="2.5" fill="#797E7F"/>
<rect x="94" y="323" width="61" height="5" rx="2.5" fill="#797E7F"/>
<rect x="94" y="340" width="50" height="5" rx="2.5" fill="#797E7F"/>
<rect x="554" y="63" width="144" height="158" rx="10" fill="#182125"/>
<line x1="566.5" y1="122.5" x2="684.5" y2="122.5" stroke="#2D3437" stroke-linecap="round"/>
<line x1="566.5" y1="102.5" x2="684.5" y2="102.5" stroke="#2D3437" stroke-linecap="round"/>
<line x1="566.5" y1="142.5" x2="684.5" y2="142.5" stroke="#2D3437" stroke-linecap="round"/>
<line x1="566.5" y1="161.5" x2="684.5" y2="161.5" stroke="#2D3437" stroke-linecap="round"/>
<line x1="566.5" y1="181.5" x2="684.5" y2="181.5" stroke="#2D3437" stroke-linecap="round"/>
<rect x="554" y="63" width="144" height="158" rx="10" fill="#182125"/>
<line x1="566.5" y1="122.5" x2="684.5" y2="122.5" stroke="#2D3437" stroke-linecap="round"/>
<line x1="566.5" y1="102.5" x2="684.5" y2="102.5" stroke="#2D3437" stroke-linecap="round"/>
<line x1="566.5" y1="142.5" x2="684.5" y2="142.5" stroke="#2D3437" stroke-linecap="round"/>
<line x1="566.5" y1="161.5" x2="684.5" y2="161.5" stroke="#2D3437" stroke-linecap="round"/>
<line x1="566.5" y1="181.5" x2="684.5" y2="181.5" stroke="#2D3437" stroke-linecap="round"/>
<path d="M566 135C566 135 568.193 140.257 570.5 143C573.847 146.979 576.459 149.225 581.5 150.5C590.87 152.87 598.528 146 607.5 146C610.156 146 614 148 614 148C614 148 622.395 153.389 628.5 154.5C633.661 155.439 638.016 155.41 644 154.5C663.657 151.512 676.487 141.409 684 123" stroke="#4DFF4D" stroke-linejoin="round"/>
<rect x="226" y="246" width="472" height="158" rx="10" fill="#182125"/>
<line x1="238.5" y1="304.5" x2="684.5" y2="304.5" stroke="#2D3437" stroke-linecap="round"/>
<line x1="238.5" y1="284.5" x2="684.5" y2="284.5" stroke="#2D3437" stroke-linecap="round"/>
<line x1="238.5" y1="324.5" x2="684.5" y2="324.5" stroke="#2D3437" stroke-linecap="round"/>
<line x1="238.5" y1="343.5" x2="684.5" y2="343.5" stroke="#2D3437" stroke-linecap="round"/>
<line x1="238.5" y1="363.5" x2="684.5" y2="363.5" stroke="#2D3437" stroke-linecap="round"/>
<rect x="238" y="259" width="69" height="5" rx="2.5" fill="#E4EAEB"/>
<rect x="251" y="386" width="43" height="5" rx="2.5" fill="#7E8587"/>
<rect x="668" y="259" width="17" height="5" rx="2.5" fill="#4B5355"/>
<circle cx="241.5" cy="388.5" r="3.5" fill="#6092A5"/>
<rect x="322" y="386" width="43" height="5" rx="2.5" fill="#7E8587"/>
<circle cx="312.5" cy="388.5" r="3.5" fill="#9A4DFF"/>
<rect x="393" y="386" width="43" height="5" rx="2.5" fill="#7E8587"/>
<circle cx="383.5" cy="388.5" r="3.5" fill="#A4574C"/>
<path d="M238 324.626L238.855 313.398L240.564 324.626L241.419 323.129L242.273 323.877L243.983 320.134V323.877L244.837 324.626L246.547 314.895L247.402 324.626H248.256L249.111 323.877L249.966 324.626H250.82L251.675 323.877L252.53 324.626H253.384L254.239 323.877L255.094 324.626L255.948 323.877L256.803 311.901L257.658 323.877H258.512L259.367 317.14L260.222 323.877H261.076V321.632L262.786 324.626H267.914L268.769 313.398L270.478 324.626H274.751L276.461 323.129V324.626H278.17L279.025 314.146L279.88 324.626H280.734L281.589 323.129L282.444 324.626H283.298L285.008 319.386L285.862 324.626H286.717L287.572 323.129V324.626H290.136H293.554L294.409 317.889L295.264 324.626H296.119V323.877L296.973 323.129V324.626H297.828L298.683 323.129L299.537 320.883L300.392 324.626H301.247L302.101 321.632L302.956 318.637L303.811 317.889L304.665 319.386L305.52 317.889L306.375 314.895L307.229 317.889L308.084 316.392L308.939 318.637L309.793 308.158L310.648 317.889L311.503 317.14V315.643L312.358 314.146V317.14V319.386L313.212 321.632V323.129L314.067 323.877L314.922 323.129L316 281L317 281L317.486 320.883L318.34 323.877V314.146H319.195V317.14L320.05 320.883V323.129L321.759 324.626H327.742L328.597 323.877L329.451 324.626H331.161L332.015 316.392L332.87 324.626H335.434V321.632L336.289 324.626L337.143 316.392L337.998 320.134V324.626H342.272L343.126 314.146L344.836 324.626H355.092L355.946 321.632L356.801 304.415V324.626H359.365V323.877L360.22 324.626H362.784L363.639 314.895L364.493 319.386L365.348 321.632V324.626H366.203L367.057 322.38L367.912 324.626H368.767L369.621 310.403L370.476 321.632L371.331 324.626L372.185 322.38V320.134L373.04 324.626H373.895L374.75 323.129L375.604 324.626H376.459L377.314 323.129V324.626H379.023L379.878 323.129L380.732 324.626H381.587L382.442 311.152V323.129L383.296 324.626H384.151L385.006 320.883L385.86 324.626H386.715L387.57 318.637V324.626H389.279V323.877H390.134V324.626H392.698L393.553 311.152L394.407 324.626H397.826H399.535L400.39 308.906L401.245 324.626H405.518L406.373 317.14L407.228 324.626L408.082 323.877L408.937 314.895L409.792 323.877L410.646 324.626H412.356L413.21 323.129L414.065 323.877L414.92 322.38L415.774 323.877L416.629 324.626L417.484 323.877L418.338 323.129V319.386L419.193 323.129H420.902V317.14L421.757 323.129H422.612L424.321 316.392V322.38L425.176 323.877L426.885 323.129L427.74 323.877L429.449 323.129L430.304 323.877L431.159 308.158L432.013 323.877L432.868 323.129L433.723 308.906L434.577 321.632L436.287 311.901L437.996 320.883L439.706 315.643L440.56 317.889L441.415 312.649L442.27 317.889L443.124 316.392L443.979 310.403L444.834 313.398L445.688 317.14L446.543 308.158L447.398 317.889L448.252 319.386V321.632L449.107 323.129L450.816 324.626H452.526L454.235 321.632L455.09 323.129L455.945 320.134L456.799 321.632L457.654 320.134L458.509 323.877L459.363 315.643L460.218 322.38L461.073 323.877L461.927 315.643L462.782 322.38L464.491 323.877L466.201 323.129H467.91L468.765 315.643L469.62 320.134L470.474 320.883L472.184 312.649V320.134L473.038 320.883L473.893 319.386H474.748L475.602 317.14L476.457 319.386L477.312 320.883L478.166 320.134V321.632H479.876V320.883L481.585 316.392V323.129H482.44L483.294 320.134L484.149 315.643L485.858 320.883L486.713 308.158L487.568 322.38L489.277 311.901L490.132 322.38H490.987L492.696 324.626L493.551 317.14L494.405 323.129L495.26 320.883L496.115 319.386L496.969 306.661L497.824 316.392L498.679 266.24L500.388 296.93L502.098 290.193L502.952 302.918L503.807 301.421H504.662L505.516 286.45L506.371 267.737L507.226 277.468L508.08 275.222L508.935 305.912L510.644 266.24H511.499L514.063 320.883L514.918 323.877L517.482 286.45L518.337 316.392L519.191 299.924L520.901 314.895L521.755 294.684L522.61 320.883V322.38L523.465 320.134L524.319 321.632L525.174 323.129L526.029 314.895L526.883 316.392L527.738 322.38L528.593 311.901L530.302 317.889L531.157 300.672L532.866 313.398L534.576 324.626H542.268L543.977 309.655L544.832 323.877L546.541 323.129L547.396 324.626H549.105L550.815 323.877L551.669 324.626H553.379L554.233 307.409L555.088 324.626L556.797 323.129L557.652 323.877L559.361 323.129V323.877L560.216 322.38L561.071 323.129H561.925L562.78 323.877L564.489 322.38L565.344 315.643L566.199 323.129H567.054C567.338 323.378 567.908 323.727 567.908 323.129C567.908 322.53 568.478 319.386 568.763 317.889L570.472 323.129H571.327L572.182 322.38L573.036 324.626L573.891 323.877L574.746 323.129V324.626H575.6L576.455 323.129L577.31 321.632L578.164 319.386L579.019 323.129L579.874 324.626L580.728 323.877L582.438 306.661L584.147 323.877L585.002 321.632L585.857 324.626H592.694V320.883L593.549 323.129L594.403 312.649L596.113 324.626H604.66L605.066 323.877L605.514 324.626L607.224 312.649L608.078 324.626H616.625L618.335 316.392L619.189 324.626H630.3L631.155 320.134L632.01 324.626L633.719 321.632L634.574 324.626L635.428 314.146L636.283 324.626H637.138L637.992 323.129L638.847 324.626H642.266L643.12 311.152L644.83 324.626H655.086L655.941 314.146L656.795 324.626H661.923L662.778 323.129L663.633 324.626H665.342V323.877L666.197 324.626H667.906L668.761 316.392V324.626H670.47L671.325 320.134L672.18 324.626L673.034 323.877L674.744 324.626L676.453 323.877V324.626L678.163 323.877L679.872 324.626L680.727 318.637L682.436 323.877L683.291 321.632L684.145 320.883H685" stroke="#6092A5" stroke-linejoin="round"/>
<path d="M238 325.374L238.855 336.602L240.564 325.374L241.419 326.871L242.273 326.123L243.983 329.866V326.123L244.837 325.374L246.547 335.105L247.402 325.374H248.256L249.111 326.123L249.966 325.374H250.82L251.675 326.123L252.53 325.374H253.384L254.239 326.123L255.094 325.374L255.948 326.123L256.803 338.099L257.658 326.123H258.512L259.367 332.86L260.222 326.123H261.076V328.368L262.786 325.374H267.914L268.769 336.602L270.478 325.374H274.751L276.461 326.871V325.374H278.17L279.025 335.854L279.88 325.374H280.734L281.589 326.871L282.444 325.374H283.298L285.008 330.614L285.862 325.374H286.717L287.572 326.871V325.374H290.136H293.554L294.409 332.111L295.264 325.374H296.119V326.123L296.973 326.871V325.374H297.828L298.683 326.871L299.537 329.117L300.392 325.374H301.247L302.101 328.368L302.956 331.363L303.811 332.111L304.665 330.614L305.52 332.111L306.375 335.105L307.229 332.111L308.084 333.608L308.939 331.363L309.794 341.842L310.648 332.111L311.503 332.86V334.357L312.358 335.854V332.86V330.614L313.212 328.368V326.871L314.067 326.123L314.922 326.871L316 371.5H316.855L317.486 329.117L318.34 326.123V335.854H319.195V332.86L320.05 329.117V326.871L321.759 325.374H327.742L328.597 326.123L329.451 325.374H331.161L332.015 333.608L332.87 325.374H335.434V328.368L336.289 325.374L337.143 333.608L337.998 329.866V325.374H342.272L343.126 335.854L344.836 325.374H355.092L355.946 328.368L356.801 345.585V325.374H359.365V326.123L360.22 325.374H362.784L363.639 335.105L364.493 330.614L365.348 328.368V325.374H366.203L367.057 327.62L367.912 325.374H368.767L369.621 339.597L370.476 328.368L371.331 325.374L372.185 327.62V329.866L373.04 325.374H373.895L374.75 326.871L375.604 325.374H376.459L377.314 326.871V325.374H379.023L379.878 326.871L380.732 325.374H381.587L382.442 338.848V326.871L383.296 325.374H384.151L385.006 329.117L385.86 325.374H386.715L387.57 331.363V325.374H389.279V326.123H390.134V325.374H392.698L393.553 338.848L394.407 325.374H397.826H399.535L400.39 341.094L401.245 325.374H405.518L406.373 332.86L407.228 325.374L408.082 326.123L408.937 335.105L409.792 326.123L410.646 325.374H412.356L413.21 326.871L414.065 326.123L414.92 327.62L415.774 326.123L416.629 325.374L417.484 326.123L418.338 326.871V330.614L419.193 326.871H420.902V332.86L421.757 326.871H422.612L424.321 333.608V327.62L425.176 326.123L426.885 326.871L427.74 326.123L429.449 326.871L430.304 326.123L431.159 341.842L432.013 326.123L432.868 326.871L433.723 341.094L434.577 328.368L436.287 338.099L437.996 329.117L439.706 334.357L440.56 332.111L441.415 337.351L442.27 332.111L443.124 333.608L443.979 339.597L444.834 336.602L445.688 332.86L446.543 341.842L447.398 332.111L448.252 330.614V328.368L449.107 326.871L450.816 325.374H452.526L454.235 328.368L455.09 326.871L455.945 329.866L456.799 328.368L457.654 329.866L458.509 326.123L459.363 334.357L460.218 327.62L461.073 326.123L461.927 334.357L462.782 327.62L464.491 326.123L466.201 326.871H467.91L468.765 334.357L469.62 329.866L470.474 329.117L472.184 337.351V329.866L473.038 329.117L473.893 330.614H474.748L475.602 332.86L476.457 330.614L477.312 329.117L478.166 329.866V328.368H479.876V329.117L481.585 333.608V326.871H482.44L483.294 329.866L484.149 334.357L485.859 329.117L486.713 341.842L487.568 327.62L489.277 338.099L490.132 327.62H490.987L492.696 325.374L493.551 332.86L494.405 326.871L495.26 329.117L496.115 330.614L496.969 343.339L497.824 333.608L498.679 383.76L500.388 353.07L502.098 359.807L502.952 347.082L503.807 348.579H504.662L505.516 363.55L506.371 382.263L507.226 372.532L508.08 374.778L508.935 344.088L510.644 383.76H511.499L514.063 329.117L514.918 326.123L517.482 363.55L518.337 333.608L519.191 350.076L520.901 335.105L521.755 355.316L522.61 329.117V327.62L523.465 329.866L524.319 328.368L525.174 326.871L526.029 335.105L526.883 333.608L527.738 327.62L528.593 338.099L530.302 332.111L531.157 349.328L532.866 336.602L534.576 325.374H542.268L543.977 340.345L544.832 326.123L546.541 326.871L547.396 325.374H549.105L550.815 326.123L551.669 325.374H553.379L554.233 342.591L555.088 325.374L556.797 326.871L557.652 326.123L559.361 326.871V326.123L560.216 327.62L561.071 326.871H561.925L562.78 326.123L564.49 327.62L565.344 334.357L566.199 326.871H567.054C567.338 326.622 567.908 326.273 567.908 326.871C567.908 327.47 568.478 330.614 568.763 332.111L570.472 326.871H571.327L572.182 327.62L573.036 325.374L573.891 326.123L574.746 326.871V325.374H575.6L576.455 326.871L577.31 328.368L578.164 330.614L579.019 326.871L579.874 325.374L580.728 326.123L582.438 343.339L584.147 326.123L585.002 328.368L585.857 325.374H592.694V329.117L593.549 326.871L594.403 337.351L596.113 325.374H604.66L605.066 326.123L605.514 325.374L607.224 337.351L608.078 325.374H616.625L618.335 333.608L619.189 325.374H630.3L631.155 329.866L632.01 325.374L633.719 328.368L634.574 325.374L635.428 335.854L636.283 325.374H637.138L637.992 326.871L638.847 325.374H642.266L643.12 338.848L644.83 325.374H655.086L655.941 335.854L656.795 325.374H661.924L662.778 326.871L663.633 325.374H665.342V326.123L666.197 325.374H667.906L668.761 333.608V325.374H670.47L671.325 329.866L672.18 325.374L673.034 326.123L674.744 325.374L676.453 326.123V325.374L678.163 326.123L679.872 325.374L680.727 331.363L682.436 326.123L683.291 328.368L684.145 329.117H685" stroke="#B45D50" stroke-opacity="0.9" stroke-linejoin="round"/>
<path d="M238 325.374H241.419L242.273 310.403L243.983 325.374H252.53L255.094 322.38L257.658 323.129L259.367 316.392L260.222 323.129L262.786 325.374H272.187L273.042 324.626L273.897 325.374H278.17L279.025 309.655L279.88 325.374L281.589 323.877L282.444 325.374L284.153 324.626L285.862 325.374H296.973L297.828 324.626L299.537 325.374L302.101 321.632L302.956 324.626L303.811 323.877L305.52 324.626V323.877L306.375 324.626L313.212 325.374V324.626L314.922 323.877L316.631 281.959L317.486 325.374H320.05V324.626L320.904 325.374H326.887L328.597 323.129L330.306 323.877H332.015L333.725 323.129L335.434 323.877V325.374H337.143L337.998 323.877L340.562 325.374H361.929L363.639 304.415V305.912L364.493 305.164L365.348 325.374H369.621H402.099L402.954 321.632L404.663 322.38L405.518 321.632L406.373 323.129L408.082 320.134L408.937 315.643L409.792 323.129L410.646 322.38L412.356 313.398L413.21 320.134H414.065L414.92 312.649L415.774 323.129L416.629 322.38L417.484 311.152L418.338 320.883H419.193L420.048 314.146L421.757 320.134L422.612 317.14L424.321 320.883L425.176 320.134L426.031 317.14L426.885 318.637L427.74 315.643L428.595 321.632L430.304 314.895L432.013 314.146L432.868 310.403L434.577 323.129L436.287 323.877L437.141 324.626L438.851 323.129L440.56 321.632V323.877L442.27 322.38L443.124 323.877L443.979 320.134L445.688 323.877L446.543 323.129L447.398 324.626L448.252 322.38L449.962 324.626H451.671L452.526 315.643L453.381 322.38L454.235 314.146L455.09 319.386L455.945 312.649L456.799 320.883L457.654 316.392L459.363 322.38L461.073 320.134L462.782 323.129L464.491 320.883L465.346 323.877H467.91V322.38L469.62 318.637L471.329 314.146L472.184 317.889L473.038 314.146L473.893 317.14L474.748 315.643L475.602 316.392L476.457 315.643L478.166 319.386L479.021 318.637L479.876 320.134L481.585 318.637V323.877L482.44 323.129L483.294 323.877L484.149 317.889L485.004 322.38H486.713V315.643L489.277 311.152L490.132 304.415L491.841 319.386L492.696 321.632L493.551 318.637L494.405 290.942L495.26 302.17L496.115 284.205L497.824 318.637L499.533 315.643L501.243 323.129L502.952 325.374L503.807 324.626L505.516 325.374L506.371 323.877L507.226 325.374L508.935 324.626L510.644 323.877L511.499 324.626V323.877L513.208 325.374H514.918L516.627 283.456L518.337 312.649L520.046 302.918L520.901 315.643L522.61 322.38L524.319 321.632L526.029 322.38L526.883 324.626L528.593 323.877L530.302 325.374H533.721H552.524L554.233 317.14L555.088 325.374H564.49L565.344 322.38L567.054 324.626L568.763 325.374H574.746L578.164 320.883L579.019 323.129L579.874 321.632L580.728 322.38L581.583 321.632L582.438 322.38L583.293 321.632L584.147 324.626L600.386 325.374H685" stroke="#9A4DFF" stroke-linejoin="round"/>
<path d="M238 325.374H241.419L242.273 340.345L243.983 325.374H252.53L255.094 328.368L257.658 327.62L259.367 334.357L260.222 327.62L262.786 325.374H272.187L273.042 326.123L273.897 325.374H278.17L279.025 341.094L279.88 325.374L281.589 326.871L282.444 325.374L284.153 326.123L285.862 325.374H296.973L297.828 326.123L299.537 325.374L302.101 329.117L302.956 326.123L303.811 326.871L305.52 326.123V326.871L306.375 326.123L313.212 325.374V326.123L314.922 326.871L316.631 368.789L317.486 325.374H320.05V326.123L320.904 325.374H326.887L328.597 327.62L330.306 326.871H332.015L333.725 327.62L335.434 326.871V325.374H337.143L337.998 326.871L340.562 325.374H361.929L363.639 346.333V344.836L364.493 345.585L365.348 325.374H369.621H402.099L402.954 329.117L404.663 328.368L405.518 329.117L406.373 327.62L408.082 330.614L408.937 335.105L409.792 327.62L410.646 328.368L412.356 337.351L413.21 330.614H414.065L414.92 338.099L415.774 327.62L416.629 328.368L417.484 339.597L418.338 329.866H419.193L420.048 336.602L421.757 330.614L422.612 333.608L424.321 329.866L425.176 330.614L426.031 333.608L426.885 332.111L427.74 335.105L428.595 329.117L430.304 335.854L432.013 336.602L432.868 340.345L434.577 327.62L436.287 326.871L437.141 326.123L438.851 327.62L440.56 329.117V326.871L442.27 328.368L443.124 326.871L443.979 330.614L445.688 326.871L446.543 327.62L447.398 326.123L448.252 328.368L449.962 326.123H451.671L452.526 335.105L453.381 328.368L454.235 336.602L455.09 331.363L455.945 338.099L456.799 329.866L457.654 334.357L459.363 328.368L461.073 330.614L462.782 327.62L464.491 329.866L465.346 326.871H467.91V328.368L469.62 332.111L471.329 336.602L472.184 332.86L473.038 336.602L473.893 333.608L474.748 335.105L475.602 334.357L476.457 335.105L478.166 331.363L479.021 332.111L479.876 330.614L481.585 332.111V326.871L482.44 327.62L483.294 326.871L484.149 332.86L485.004 328.368H486.713V335.105L489.277 339.597L490.132 346.333L491.841 331.363L492.696 329.117L493.551 332.111L494.405 359.807L495.26 348.579L496.115 366.544L497.824 332.111L499.533 335.105L501.243 327.62L502.952 325.374L503.807 326.123L505.516 325.374L506.371 326.871L507.226 325.374L508.935 326.123L510.644 326.871L511.499 326.123V326.871L513.208 325.374H514.918L516.627 367.292L518.337 338.099L520.046 347.83L520.901 335.105L522.61 328.368L524.319 329.117L526.029 328.368L526.883 326.123L528.593 326.871L530.302 325.374H533.721H552.524L554.233 333.608L555.088 325.374H564.49L565.344 328.368L567.054 326.123L568.763 325.374H574.746L578.164 329.866L579.019 327.62L579.874 329.117L580.728 328.368L581.583 329.117L582.438 328.368L583.293 329.117L584.147 326.123L600.386 325.374H685" stroke="#9A4DFF" stroke-opacity="0.9" stroke-linejoin="round"/>
<rect x="668" y="76" width="17" height="5" rx="2.5" fill="#4B5355"/>
<rect x="566" y="76" width="69" height="5" rx="2.5" fill="#E4EAEB"/>
<rect x="579" y="203" width="43" height="5" rx="2.5" fill="#7E8587"/>
<circle cx="569.5" cy="205.5" r="3.5" fill="#4DFF4D"/>
<rect x="226" y="429" width="144" height="209" rx="10" fill="#182125"/>
<line x1="238.5" y1="510.728" x2="356.5" y2="510.728" stroke="#2D3437" stroke-linecap="round"/>
<line x1="238.5" y1="472.5" x2="356.5" y2="472.5" stroke="#2D3437" stroke-linecap="round"/>
<line x1="238.5" y1="548.956" x2="356.5" y2="548.956" stroke="#2D3437" stroke-linecap="round"/>
<line x1="238.5" y1="585.272" x2="356.5" y2="585.272" stroke="#2D3437" stroke-linecap="round"/>
<line x1="238.5" y1="623.5" x2="356.5" y2="623.5" stroke="#2D3437" stroke-linecap="round"/>
<rect x="238" y="489" width="28" height="5" rx="2.5" fill="#7E8587"/>
<rect x="238" y="527" width="50" height="5" rx="2.5" fill="#797E7F"/>
<rect x="238" y="565" width="36" height="5" rx="2.5" fill="#797E7F"/>
<rect x="238" y="602" width="50" height="5" rx="2.5" fill="#797E7F"/>
<rect x="302" y="489" width="55" height="5" rx="2.5" fill="#7E8587"/>
<rect x="302" y="527" width="45" height="5" rx="2.5" fill="#797E7F"/>
<rect x="302" y="565" width="55" height="5" rx="2.5" fill="#797E7F"/>
<rect x="302" y="602" width="40" height="5" rx="2.5" fill="#797E7F"/>
<rect x="340" y="442" width="17" height="5" rx="2.5" fill="#4B5355"/>
<rect x="238" y="442" width="69" height="5" rx="2.5" fill="#E4EAEB"/>
<rect x="226" y="63" width="303" height="158" rx="10" fill="#182125"/>
<line x1="238.5" y1="122.5" x2="515.5" y2="122.5" stroke="#2D3437" stroke-linecap="round"/>
<line x1="238.5" y1="102.5" x2="515.5" y2="102.5" stroke="#2D3437" stroke-linecap="round"/>
<line x1="238.5" y1="142.5" x2="515.5" y2="142.5" stroke="#2D3437" stroke-linecap="round"/>
<line x1="238.5" y1="161.5" x2="515.5" y2="161.5" stroke="#2D3437" stroke-linecap="round"/>
<line x1="238.5" y1="181.5" x2="515.5" y2="181.5" stroke="#2D3437" stroke-linecap="round"/>
<rect x="499" y="76" width="17" height="5" rx="2.5" fill="#4B5355"/>
<rect x="238" y="76" width="69" height="5" rx="2.5" fill="#E4EAEB"/>
<rect x="251" y="203" width="43" height="5" rx="2.5" fill="#7E8587"/>
<circle cx="241.5" cy="205.5" r="3.5" fill="#5794F2"/>
<rect x="395" y="429" width="303" height="209" rx="10" fill="#182125"/>
<line x1="407.5" y1="492.5" x2="683.504" y2="492.5" stroke="#2D3437" stroke-linecap="round"/>
<line x1="407.5" y1="472.5" x2="683.504" y2="472.5" stroke="#2D3437" stroke-linecap="round"/>
<line x1="407.5" y1="512.5" x2="683.504" y2="512.5" stroke="#2D3437" stroke-linecap="round"/>
<line x1="407.5" y1="531.5" x2="683.504" y2="531.5" stroke="#2D3437" stroke-linecap="round"/>
<line x1="407.5" y1="551.5" x2="683.504" y2="551.5" stroke="#2D3437" stroke-linecap="round"/>
<line x1="408.496" y1="512.5" x2="684.5" y2="512.5" stroke="#2D3437" stroke-linecap="round"/>
<line x1="408.496" y1="571.5" x2="684.5" y2="571.5" stroke="#2D3437" stroke-linecap="round"/>
<line x1="408.496" y1="591.5" x2="684.5" y2="591.5" stroke="#2D3437" stroke-linecap="round"/>
<rect x="668" y="442" width="17" height="5" rx="2.5" fill="#4B5355"/>
<rect x="407" y="442" width="69" height="5" rx="2.5" fill="#E4EAEB"/>
<path d="M408 548.5C408 548.5 424.985 560.428 437.607 563C445.105 564.528 449.528 564.218 457.178 564C490.062 563.064 502.602 534.582 535.462 533C540.355 532.764 543.111 532.838 548.007 533C582.553 534.144 599.123 551.463 633.316 556.5C639.568 557.421 643.055 558.481 649.375 558.5C663.4 558.543 671.974 556.191 684 549" stroke="#DE6E4E" stroke-linejoin="round"/>
<path d="M408 533.431C408 533.431 419.516 527.333 427.574 526.007C434.176 524.92 438.075 525.09 444.702 526.007C449.57 526.68 452.192 527.684 456.936 528.976C486.657 537.07 498.193 556.569 528.383 562.632C536.569 564.275 542.282 564.628 550.404 562.632C586.876 553.666 590.519 512.112 627.234 504.23C634.357 502.7 640.062 501.448 648.277 502.25C663.76 503.762 673.389 508.564 684 520.068" stroke="#D79133" stroke-linejoin="round"/>
<path d="M407 506C407 506 419.852 527.357 431.728 537.543C439.683 544.366 444.551 548.131 454.208 552.188C476.892 561.718 492.559 550.438 517.151 549.935C550.065 549.26 601.45 549.935 601.45 549.935L685 551.437" stroke="#5C938A" stroke-linejoin="round"/>
<rect x="420" y="619" width="43" height="5" rx="2.5" fill="#7E8587"/>
<path d="M414 621.5C414 623.433 412.433 625 410.5 625C408.567 625 407 623.433 407 621.5C407 619.567 408.567 618 410.5 618C412.433 618 414 619.567 414 621.5Z" fill="#5C938A"/>
<rect x="491" y="619" width="43" height="5" rx="2.5" fill="#7E8587"/>
<circle cx="481.5" cy="621.5" r="3.5" fill="#D79133"/>
<rect x="562" y="619" width="43" height="5" rx="2.5" fill="#7E8587"/>
<circle cx="552.5" cy="621.5" r="3.5" fill="#DE6E4E"/>
<path d="M238 178.699L238.321 179.356L238.963 179.027L239.605 178.041L239.926 177.384L241.531 175.411V176.726L241.852 177.712L242.494 159.301L243.136 175.082L243.457 177.384L243.778 174.753L244.42 177.712L244.741 175.74L245.062 177.712L245.704 177.055L246.346 178.041V177.055L246.667 175.74L247.309 175.411L247.952 176.726V179.027L248.915 175.74L249.236 178.37L249.878 175.082L250.199 177.712L250.52 172.781L251.162 177.055L251.804 178.37L252.125 176.726L252.767 175.411L253.409 177.712L253.73 171.795L254.372 176.068L255.335 175.411V174.096L256.298 174.425L256.619 175.74L257.582 176.397L258.224 176.068L258.545 175.411L258.866 162.26L259.829 176.068L260.15 176.397L260.471 174.753L260.792 173.767L261.434 174.425L261.755 174.096L262.076 175.082L262.397 175.74L262.718 175.411L263.039 172.452L263.36 174.753L263.681 176.068L264.002 176.726L264.323 175.411C264.537 175.192 264.965 174.819 264.965 175.082C264.965 175.345 264.965 176.288 264.965 176.726V177.384L265.607 175.411L265.928 177.384H266.891C267.105 176.945 267.533 176.134 267.533 176.397C267.533 176.66 267.962 177.384 268.176 177.712L268.497 177.055L268.818 177.384C268.818 177.274 268.882 177.055 269.139 177.055C269.395 177.055 269.674 177.493 269.781 177.712L270.423 176.397L270.744 177.384L271.707 177.055L272.349 177.712L273.312 177.055L274.275 177.712L274.596 173.438L274.917 173.11L275.238 170.479L275.88 172.123L276.201 168.507L276.843 171.795L277.164 170.151L278.127 171.466L278.448 169.822L279.09 171.137H279.732L280.053 164.233L281.016 169.822L281.337 159.63L281.979 171.137L282.621 173.11V159.959L283.584 169.822L283.905 164.562L284.547 171.137L285.189 166.205L285.51 170.151L286.152 172.781L286.473 170.479H287.115L287.758 173.11L288.079 165.877L289.042 172.781L289.684 174.096L290.968 175.411L291.289 171.466L291.931 172.781L292.252 171.466L292.573 172.781L293.215 173.438L293.857 172.452L294.178 174.096L294.499 169.822L294.82 176.397H295.462L296.104 169.164L297.067 172.452L297.388 170.479L298.03 179.685H298.672L299.314 177.384L299.635 179.685L299.956 176.726L300.598 180.671L301.24 179.685H301.882V175.74L302.524 176.068V179.685L303.487 179.027L304.129 167.192L304.45 179.356L305.092 180.342L305.413 179.356L306.055 180.014L306.376 179.356L306.697 174.096L307.018 180.014L307.661 180.342L308.303 167.521L308.624 181L309.266 180.342L309.587 178.37L310.229 174.753L310.871 176.726L311.192 168.836L311.513 176.397L312.476 156.342L313.118 176.068L313.439 167.849L313.76 175.411L314.402 176.068L314.723 174.096L315.686 163.904L316.328 176.726L316.97 175.082C317.077 176.068 317.291 177.975 317.291 177.712C317.291 177.384 317.612 175.74 317.612 175.411C317.612 175.148 317.826 172.89 317.933 171.795L318.575 174.096L318.896 172.781L319.859 173.767L320.18 175.74L320.822 171.137L321.143 176.397L321.785 173.438L322.748 172.781V177.055L323.39 171.795L324.032 171.137L324.353 174.096C324.46 172.233 324.674 168.573 324.674 168.836C324.674 169.099 325.102 171.137 325.316 172.123L325.958 174.096L326.6 172.452L326.921 154.699L327.242 173.438L327.885 175.082L328.206 170.479L329.169 169.493V172.452L330.132 174.753L330.453 172.123L330.774 168.836L331.416 167.521L331.737 171.466L332.058 173.438L332.7 175.082L333.021 172.452L333.342 173.438L333.663 171.466L334.305 172.781L334.626 170.479L334.947 171.795L335.589 164.233L336.552 175.411L337.194 175.74L337.836 174.753L338.157 175.411V176.726L338.478 175.411L339.12 167.521L339.441 176.068L340.083 173.11L340.404 175.411L340.725 176.397H341.688V175.082L342.009 176.068L342.651 175.411L343.293 175.082L343.935 176.068L344.577 174.096L345.219 170.808L346.182 173.767L346.503 167.849L348.43 171.466L348.751 168.178L349.393 170.808L349.714 167.849L350.035 169.164L350.677 167.192C350.784 168.507 350.998 171.071 350.998 170.808C350.998 170.545 351.64 166.534 351.961 164.562V169.493L352.603 166.534L353.245 169.493L353.887 164.233V171.137L354.529 166.205L355.171 171.795L355.813 170.151L356.455 159.959L357.097 172.452L357.418 168.178L357.739 170.479L358.06 157.329L359.023 164.89L359.344 154.37L359.986 160.616L360.628 164.233L360.949 160.288L361.27 151.411L361.912 162.589L362.875 163.247C362.982 163.904 363.196 165.153 363.196 164.89C363.196 164.627 363.624 163.027 363.838 162.26L364.48 163.575V161.932L365.443 166.534L366.085 161.274C366.299 163.356 366.727 167.455 366.727 167.192C366.727 166.929 367.156 163.356 367.37 161.603L368.012 165.877L368.333 168.507L368.975 163.904L369.617 166.863V154.041L370.259 158.973L371.864 154.37L372.185 133L372.506 162.26L373.79 156.342L374.111 161.932H375.074L375.395 163.575L376.358 166.205H377.642L378.284 158.644L378.605 163.904L379.568 162.26C379.568 163.137 379.568 164.825 379.568 164.562C379.568 164.233 379.889 159.301 379.889 159.63C379.889 159.959 380.852 163.575 380.852 163.247C380.852 162.984 381.28 153.932 381.494 149.438L382.136 157L382.778 150.753V157.329L383.741 155.027C383.955 156.014 384.383 157.855 384.383 157.329C384.383 156.803 385.025 150.534 385.346 147.466L385.667 156.671V158.973L386.63 157.986L387.273 159.959L387.915 159.63C388.129 161.055 388.557 163.838 388.557 163.575C388.557 163.312 388.985 161.274 389.199 160.288C389.306 160.836 389.52 161.866 389.52 161.603C389.52 161.274 390.162 157.329 390.162 157.658C390.162 157.921 390.804 160.397 391.125 161.603L391.446 163.247L392.73 147.795L393.051 155.027C393.372 152.836 394.014 148.518 394.014 148.781C394.014 149.044 394.442 153.712 394.656 156.014L395.619 155.685L396.261 152.068L397.224 157.329V159.63L398.187 157.658L399.15 157.986L398.829 160.616H400.113L401.076 156.671L401.718 163.904L402.681 137.932L403.323 158.973L403.644 162.26L404.607 155.685L404.928 163.247L405.57 165.219L406.533 165.548L407.497 164.89L407.818 166.863L408.139 164.89L409.102 166.863L410.386 166.534C410.386 165.986 410.45 164.956 410.707 165.219C410.964 165.482 411.67 166.644 411.991 167.192H413.275C413.489 166.973 413.917 166.468 413.917 166.205C413.917 165.942 414.131 163.904 414.238 162.918L414.559 159.63L414.88 163.904L416.164 142.534L416.485 158.973L416.806 157.329L417.448 157.986L417.769 160.616L418.411 155.356L419.053 159.63L419.374 151.74L419.695 150.096L420.337 146.151L420.658 155.685L420.979 158.315L421.621 156.014V157.329L422.263 153.712L422.905 161.932L423.226 159.63L423.868 157.329L424.189 158.644L424.51 162.26L424.831 157.658L425.152 155.685L425.794 157.329H427.079V152.726L428.042 156.342L428.363 153.712V155.685L429.647 149.438V155.685L430.289 159.959L430.931 157.658L431.252 159.301L431.573 153.712L432.215 158.973L432.536 156.342L432.857 158.315L433.82 156.671L434.141 159.959L435.425 166.863L436.067 167.521L436.388 166.205C436.495 167.082 436.709 168.77 436.709 168.507C436.709 168.244 436.709 166.425 436.709 165.548H437.351L438.314 167.521L438.635 161.932C438.956 163.575 439.598 166.797 439.598 166.534C439.598 166.205 439.919 162.918 439.919 163.247C439.919 163.51 440.133 164.89 440.24 165.548C440.454 164.89 440.882 163.641 440.882 163.904C440.882 164.167 440.882 164.671 440.882 164.89L441.524 162.918L442.166 165.548L443.771 169.493L444.092 168.836L444.413 167.521L445.055 170.479C445.269 169.712 445.697 168.244 445.697 168.507C445.697 168.77 445.911 170.151 446.018 170.808L446.661 169.164L447.624 170.151L448.266 171.466L448.587 169.493L448.908 167.521C449.015 167.521 449.229 167.586 449.229 167.849C449.229 168.112 449.657 164.452 449.871 162.589C450.085 164.342 450.513 167.784 450.513 167.521C450.513 167.258 450.727 164.342 450.834 162.918L451.476 167.849C451.583 166.534 451.797 163.97 451.797 164.233C451.797 164.562 452.118 168.178 452.118 167.849C452.118 167.586 452.76 165.767 453.081 164.89C453.081 162.808 453.081 158.775 453.081 159.301C453.081 159.827 453.509 164.123 453.723 166.205L454.686 162.589L455.328 168.836C455.542 167.959 455.97 166.14 455.97 165.877C455.97 165.614 456.612 163.356 456.933 162.26L457.575 168.507C457.896 166.534 458.538 162.655 458.538 162.918C458.538 163.181 459.18 167.849 459.501 170.151L460.464 164.89C460.571 166.315 460.849 169.099 461.106 168.836C461.363 168.573 461.641 165.658 461.748 164.233L462.069 161.932L463.353 165.877L463.674 149.11L464.316 161.932L465.279 151.411L465.6 163.575L466.242 161.603L466.885 158.973V164.562L467.848 148.452L468.49 164.233L469.453 160.945V166.205L470.095 163.247L470.416 160.616L471.058 164.89L471.379 162.918L472.984 166.863L473.626 162.26L473.947 159.301L474.91 157.329L475.231 163.904C475.552 163.466 476.194 162.523 476.194 162.26C476.194 161.932 476.515 160.616 476.515 160.288C476.515 160.025 476.943 154.918 477.157 152.397C477.264 156.342 477.478 164.167 477.478 163.904C477.478 163.641 477.906 161.603 478.12 160.616L478.441 163.575L479.083 161.603L480.367 167.521L480.688 165.548L481.009 167.521L481.651 165.548C481.544 166.534 481.394 168.507 481.651 168.507C481.972 168.507 482.935 165.877 482.935 166.205C482.935 166.534 482.614 168.507 482.935 167.849C483.256 167.192 484.54 161.932 484.219 162.26C483.963 162.523 484.54 164.781 484.861 165.877L485.182 154.37L485.824 160.288L486.467 156.342V161.274L487.43 159.63C487.43 160.945 487.43 163.444 487.43 162.918C487.43 162.392 488.072 158.096 488.393 156.014L488.714 162.918L489.677 158.644L490.319 161.932C490.533 160.616 490.961 158.118 490.961 158.644C490.961 159.17 491.175 164.342 491.282 166.863L492.566 158.315L493.208 163.904L493.85 157.986L494.492 163.904L495.134 159.63L496.418 164.89L497.06 153.384L497.381 159.301L498.023 161.274L498.665 163.247L499.628 158.644C499.735 160.288 499.949 163.51 499.949 163.247C499.949 162.984 500.591 159.192 500.912 157.329C501.233 158.315 501.811 160.353 501.554 160.616C501.297 160.879 501.661 162.041 501.875 162.589L502.838 159.301L503.159 157.329L504.122 152.397L505.085 165.548L506.048 140.233L507.012 161.603C507.012 163.027 507.012 165.811 507.012 165.548C507.012 165.285 507.44 163.027 507.654 161.932L507.975 166.205L508.617 152.068L509.259 157.986L510.222 158.973L510.864 156.014V153.055C510.971 155.575 511.249 160.551 511.506 160.288L511.827 156.671L512.469 159.959L513.111 158.644L513.432 159.959C513.646 160.726 514.074 162.195 514.074 161.932C514.074 161.668 514.288 161.164 514.395 160.945L515.037 160.616L516 157.986L515.679 160.616" stroke="#5794F2" stroke-linejoin="round"/>
</g>
<defs>
<linearGradient id="paint0_linear_109_893" x1="10" y1="59.5" x2="41" y2="59.5" gradientUnits="userSpaceOnUse">
<stop stop-color="#00EEFF"/>
<stop offset="0.5" stop-color="#4050FF"/>
<stop offset="1" stop-color="#D901FF"/>
</linearGradient>
<linearGradient id="paint1_linear_109_893" x1="8" y1="51" x2="43" y2="51" gradientUnits="userSpaceOnUse">
<stop stop-color="#00EEFF"/>
<stop offset="0.5" stop-color="#4050FF"/>
<stop offset="1" stop-color="#D901FF"/>
</linearGradient>
<clipPath id="clip0_109_893">
<path d="M0 10C0 4.47716 4.47715 0 10 0H709C714.523 0 719 4.47715 719 10V645H0V10Z" fill="white"/>
</clipPath>
</defs>
</svg>
