<svg width="71" height="32" viewBox="0 0 71 32" fill="none" xmlns="http://www.w3.org/2000/svg">
<path d="M1.27841 13V1.36364H5.42614C6.33144 1.36364 7.08144 1.52841 7.67614 1.85795C8.27083 2.1875 8.71591 2.63826 9.01136 3.21023C9.30682 3.77841 9.45455 4.41856 9.45455 5.13068C9.45455 5.84659 9.30492 6.49053 9.00568 7.0625C8.71023 7.63068 8.26326 8.08144 7.66477 8.41477C7.07008 8.74432 6.32197 8.90909 5.42045 8.90909H2.56818V7.42045H5.26136C5.83333 7.42045 6.29735 7.32197 6.65341 7.125C7.00947 6.92424 7.27083 6.65152 7.4375 6.30682C7.60417 5.96212 7.6875 5.57008 7.6875 5.13068C7.6875 4.69129 7.60417 4.30114 7.4375 3.96023C7.27083 3.61932 7.00758 3.35227 6.64773 3.15909C6.29167 2.96591 5.82197 2.86932 5.23864 2.86932H3.03409V13H1.27841ZM16.4248 9.38068V4.27273H18.1294V13H16.4589V11.4886H16.368C16.1673 11.9545 15.8453 12.3428 15.4021 12.6534C14.9627 12.9602 14.4154 13.1136 13.7601 13.1136C13.1995 13.1136 12.7032 12.9905 12.2714 12.7443C11.8434 12.4943 11.5063 12.125 11.2601 11.6364C11.0176 11.1477 10.8964 10.5436 10.8964 9.82386V4.27273H12.5953V9.61932C12.5953 10.214 12.7601 10.6875 13.0896 11.0398C13.4191 11.392 13.8472 11.5682 14.3737 11.5682C14.6919 11.5682 15.0082 11.4886 15.3226 11.3295C15.6407 11.1705 15.904 10.9299 16.1123 10.608C16.3245 10.286 16.4286 9.87689 16.4248 9.38068ZM21.6309 1.36364V13H19.932V1.36364H21.6309ZM29.9762 6.40341L28.4364 6.67614C28.372 6.47917 28.2698 6.29167 28.1296 6.11364C27.9932 5.93561 27.8076 5.78977 27.5728 5.67614C27.3379 5.5625 27.0444 5.50568 26.6921 5.50568C26.211 5.50568 25.8095 5.61364 25.4876 5.82955C25.1656 6.04167 25.0046 6.31629 25.0046 6.65341C25.0046 6.94508 25.1126 7.17992 25.3285 7.35795C25.5444 7.53598 25.8929 7.68182 26.3739 7.79545L27.7603 8.11364C28.5633 8.29924 29.1618 8.58523 29.5557 8.97159C29.9497 9.35795 30.1466 9.85985 30.1466 10.4773C30.1466 11 29.9951 11.4659 29.6921 11.875C29.3929 12.2803 28.9743 12.5985 28.4364 12.8295C27.9023 13.0606 27.283 13.1761 26.5785 13.1761C25.6012 13.1761 24.8038 12.9678 24.1864 12.5511C23.569 12.1307 23.1902 11.5341 23.0501 10.7614L24.6921 10.5114C24.7944 10.9394 25.0046 11.2633 25.3228 11.483C25.641 11.6989 26.0557 11.8068 26.5671 11.8068C27.1239 11.8068 27.569 11.6913 27.9023 11.4602C28.2357 11.2254 28.4023 10.9394 28.4023 10.6023C28.4023 10.3295 28.3001 10.1004 28.0955 9.91477C27.8948 9.72917 27.586 9.58902 27.1694 9.49432L25.6921 9.17045C24.8777 8.98485 24.2754 8.68939 23.8853 8.28409C23.4989 7.87879 23.3057 7.36553 23.3057 6.74432C23.3057 6.22917 23.4497 5.77841 23.7376 5.39205C24.0254 5.00568 24.4232 4.70455 24.9307 4.48864C25.4383 4.26894 26.0198 4.15909 26.6751 4.15909C27.6182 4.15909 28.3607 4.36364 28.9023 4.77273C29.444 5.17803 29.802 5.72159 29.9762 6.40341ZM35.2959 13.1761C34.4361 13.1761 33.6955 12.9924 33.0743 12.625C32.4569 12.2538 31.9796 11.733 31.6425 11.0625C31.3092 10.3883 31.1425 9.59848 31.1425 8.69318C31.1425 7.79924 31.3092 7.01136 31.6425 6.32955C31.9796 5.64773 32.4493 5.11553 33.0516 4.73295C33.6577 4.35038 34.366 4.15909 35.1766 4.15909C35.669 4.15909 36.1463 4.24053 36.6084 4.40341C37.0705 4.56629 37.4853 4.82197 37.8527 5.17045C38.2202 5.51894 38.5099 5.97159 38.722 6.52841C38.9342 7.08144 39.0402 7.75379 39.0402 8.54545V9.14773H32.1027V7.875H37.3755C37.3755 7.42803 37.2845 7.0322 37.1027 6.6875C36.9209 6.33902 36.6652 6.06439 36.3357 5.86364C36.0099 5.66288 35.6273 5.5625 35.188 5.5625C34.7107 5.5625 34.294 5.67992 33.938 5.91477C33.5857 6.14583 33.313 6.44886 33.1198 6.82386C32.9304 7.19508 32.8357 7.59848 32.8357 8.03409V9.02841C32.8357 9.61174 32.938 10.108 33.1425 10.517C33.3508 10.9261 33.6406 11.2386 34.0118 11.4545C34.383 11.6667 34.8167 11.7727 35.313 11.7727C35.6349 11.7727 35.9285 11.7273 36.1936 11.6364C36.4588 11.5417 36.688 11.4015 36.8811 11.2159C37.0743 11.0303 37.222 10.8011 37.3243 10.5284L38.9323 10.8182C38.8035 11.2917 38.5724 11.7064 38.2391 12.0625C37.9095 12.4148 37.4948 12.6894 36.9948 12.8864C36.4986 13.0795 35.9323 13.1761 35.2959 13.1761ZM48.4565 5.03977C48.3467 4.69508 48.199 4.38636 48.0134 4.11364C47.8315 3.83712 47.6137 3.60227 47.3599 3.40909C47.1062 3.21212 46.8164 3.0625 46.4906 2.96023C46.1687 2.85795 45.8145 2.80682 45.4281 2.80682C44.7728 2.80682 44.1819 2.97538 43.6554 3.3125C43.1289 3.64962 42.7122 4.14394 42.4054 4.79545C42.1024 5.44318 41.9509 6.23674 41.9509 7.17614C41.9509 8.11932 42.1043 8.91667 42.4111 9.56818C42.7179 10.2197 43.1384 10.714 43.6724 11.0511C44.2065 11.3883 44.8145 11.5568 45.4963 11.5568C46.1289 11.5568 46.68 11.428 47.1497 11.1705C47.6232 10.9129 47.9887 10.5492 48.2463 10.0795C48.5077 9.60606 48.6384 9.04924 48.6384 8.40909L49.0929 8.49432H45.7634V7.04545H50.3372V8.36932C50.3372 9.34659 50.1289 10.1951 49.7122 10.9148C49.2993 11.6307 48.7274 12.1837 47.9963 12.5739C47.269 12.964 46.4357 13.1591 45.4963 13.1591C44.4433 13.1591 43.519 12.9167 42.7236 12.4318C41.9319 11.947 41.3145 11.2595 40.8713 10.3693C40.4281 9.47538 40.2065 8.41477 40.2065 7.1875C40.2065 6.25947 40.3353 5.42614 40.5929 4.6875C40.8505 3.94886 41.2122 3.32197 41.6781 2.80682C42.1478 2.28788 42.699 1.89205 43.3315 1.61932C43.9679 1.3428 44.663 1.20455 45.4168 1.20455C46.0455 1.20455 46.6308 1.29735 47.1724 1.48295C47.7179 1.66856 48.2027 1.93182 48.627 2.27273C49.055 2.61364 49.4092 3.01894 49.6895 3.48864C49.9698 3.95455 50.1592 4.47159 50.2577 5.03977H48.4565ZM51.9495 13V4.27273H53.5916V5.65909H53.6825C53.8416 5.18939 54.1219 4.82008 54.5234 4.55114C54.9287 4.27841 55.387 4.14205 55.8984 4.14205C56.0045 4.14205 56.1295 4.14583 56.2734 4.15341C56.4211 4.16098 56.5367 4.17045 56.62 4.18182V5.80682C56.5518 5.78788 56.4306 5.76705 56.2564 5.74432C56.0821 5.7178 55.9079 5.70455 55.7336 5.70455C55.3321 5.70455 54.9742 5.78977 54.6598 5.96023C54.3492 6.12689 54.103 6.35985 53.9211 6.65909C53.7393 6.95455 53.6484 7.29167 53.6484 7.67045V13H51.9495ZM57.6102 13V4.27273H59.309V13H57.6102ZM58.4681 2.92614C58.1727 2.92614 57.9189 2.82765 57.7068 2.63068C57.4984 2.42992 57.3943 2.19129 57.3943 1.91477C57.3943 1.63447 57.4984 1.39583 57.7068 1.19886C57.9189 0.998106 58.1727 0.897727 58.4681 0.897727C58.7636 0.897727 59.0155 0.998106 59.2238 1.19886C59.4359 1.39583 59.542 1.63447 59.542 1.91477C59.542 2.19129 59.4359 2.42992 59.2238 2.63068C59.0155 2.82765 58.7636 2.92614 58.4681 2.92614ZM64.3816 13.1705C63.677 13.1705 63.0483 12.9905 62.4952 12.6307C61.946 12.267 61.5142 11.75 61.1998 11.0795C60.8892 10.4053 60.7339 9.59659 60.7339 8.65341C60.7339 7.71023 60.8911 6.90341 61.2055 6.23295C61.5236 5.5625 61.9592 5.04924 62.5123 4.69318C63.0653 4.33712 63.6922 4.15909 64.393 4.15909C64.9346 4.15909 65.3702 4.25 65.6998 4.43182C66.0331 4.60985 66.2907 4.81818 66.4725 5.05682C66.6581 5.29545 66.802 5.50568 66.9043 5.6875H67.0066V1.36364H68.7055V13H67.0464V11.642H66.9043C66.802 11.8277 66.6543 12.0398 66.4611 12.2784C66.2717 12.517 66.0104 12.7254 65.677 12.9034C65.3437 13.0814 64.9119 13.1705 64.3816 13.1705ZM64.7566 11.7216C65.2452 11.7216 65.6581 11.5928 65.9952 11.3352C66.3361 11.0739 66.5937 10.7121 66.768 10.25C66.946 9.78788 67.035 9.25 67.035 8.63636C67.035 8.0303 66.9479 7.5 66.7736 7.04545C66.5994 6.59091 66.3437 6.23674 66.0066 5.98295C65.6695 5.72917 65.2528 5.60227 64.7566 5.60227C64.2452 5.60227 63.8191 5.73485 63.4782 6C63.1373 6.26515 62.8797 6.62689 62.7055 7.08523C62.535 7.54356 62.4498 8.06061 62.4498 8.63636C62.4498 9.2197 62.5369 9.74432 62.7111 10.2102C62.8854 10.6761 63.143 11.0455 63.4839 11.3182C63.8286 11.5871 64.2528 11.7216 64.7566 11.7216Z" fill="url(#paint0_linear_67_972)"/>
<path d="M5 24C5.496 24.0132 5.992 24.0261 6.488 24.0388C6.81867 24.0473 7.14933 24.0557 7.48 24.064C7.81067 24.0723 8.14133 24.0805 8.472 24.0886C8.80267 24.0967 9.13333 24.1047 9.464 24.1126C9.48282 24.1131 9.50164 24.1136 9.52046 24.114C9.83231 24.1215 10.1442 24.1288 10.456 24.1361C10.7867 24.1438 11.1173 24.1514 11.448 24.159C11.7787 24.1665 12.1093 24.1739 12.44 24.1812C12.7707 24.1886 13.1013 24.1958 13.432 24.203C13.7627 24.2101 14.0933 24.2171 14.424 24.2241C14.7547 24.231 15.0853 24.2379 15.416 24.2446C15.7467 24.2514 16.0773 24.2581 16.408 24.2646C16.5009 24.2665 16.5938 24.2683 16.6867 24.2701C17.1957 24.2797 17.7086 24.1678 18.1707 23.9443C18.2902 23.8869 18.4096 23.8294 18.5291 23.772C18.8629 23.6115 19.1966 23.4509 19.5302 23.2901C19.8639 23.1294 20.1975 22.9686 20.5311 22.8076C20.7664 22.6941 21.0016 22.5805 21.2369 22.4669C21.38 22.3987 21.5384 22.365 21.6952 22.3686C21.9982 22.3739 22.2908 22.5248 22.4689 22.7623C22.4959 22.7975 22.5229 22.8327 22.55 22.8679C22.712 23.0788 22.8742 23.2897 23.0363 23.5005C23.1984 23.7112 23.3608 23.9223 23.523 24.1329C23.6853 24.3439 23.8474 24.5543 24.0099 24.7651C24.1724 24.976 24.3345 25.1863 24.4971 25.3971C24.6597 25.6079 24.822 25.8182 24.9846 26.0288C25.1473 26.2395 25.3097 26.4497 25.4725 26.6603C25.635 26.8707 25.7979 27.0814 25.9606 27.2916L25.995 27.3304C26.0433 27.3803 26.0915 27.4302 26.1398 27.48C26.4444 27.7948 26.879 27.9808 27.32 27.9829C27.7556 27.9885 28.2095 27.8143 28.5229 27.4742C29.0029 26.9637 29.4412 26.3738 29.7653 25.7288C30.9277 23.4168 31.12 20.8975 31.8344 18.6699C32.0359 18.0351 32.3233 17.4013 32.6066 16.7387C32.6466 16.6448 32.7437 16.5842 32.8337 16.5871C32.9089 16.5876 32.9819 16.6284 33.0216 16.6911C33.1059 16.8195 33.1902 16.9479 33.2746 17.0763L33.2399 17.0167C33.5045 17.5579 33.7736 18.1441 33.9419 18.6756C34.0285 18.9647 34.1062 19.3044 34.1745 19.6232L34.1793 19.644C34.3437 20.3109 34.5085 20.9777 34.6737 21.6444L34.6691 21.6247C34.6939 21.7412 34.7186 21.8576 34.7434 21.9741C34.7806 22.1493 34.8179 22.3245 34.8552 22.4997C34.9173 22.7914 34.9795 23.083 35.0417 23.3746C35.1039 23.6662 35.1663 23.9578 35.2287 24.2494C35.2911 24.541 35.3535 24.8326 35.4161 25.1241C35.4786 25.4157 35.5413 25.7072 35.604 25.9987C35.6667 26.2902 35.7295 26.5817 35.7923 26.8732C35.8552 27.1647 35.9181 27.4562 35.9811 27.7476C36.1167 28.3758 36.3318 28.9864 36.6195 29.5603C36.6526 29.6263 36.6858 29.6924 36.7189 29.7585C36.8563 30.0323 36.9938 30.3061 37.1314 30.5799C37.2173 30.7516 37.3309 30.9093 37.4665 31.0449C37.4692 31.0475 37.4718 31.0502 37.4745 31.0528C37.8021 31.3831 38.2642 31.5732 38.728 31.5696C39.1918 31.5694 39.6507 31.3757 39.9736 31.0449C39.9762 31.0422 39.9788 31.0396 39.9814 31.0369C40.115 30.9011 40.2265 30.7437 40.3102 30.5728C40.4038 30.381 40.4972 30.1892 40.5907 29.9973C40.7129 29.7465 40.8351 29.4956 40.9572 29.2446C41.0792 28.9937 41.2013 28.7427 41.3232 28.4917C41.4452 28.2407 41.5671 27.9896 41.689 27.7386C41.8108 27.4875 41.9326 27.2364 42.0543 26.9853C42.1761 26.7341 42.2977 26.483 42.4193 26.2318C42.5409 25.9806 42.6625 25.7294 42.7839 25.4781C42.9054 25.2269 43.0268 24.9756 43.1482 24.7243C43.2696 24.473 43.3909 24.2216 43.5121 23.9703C43.6333 23.7189 43.7545 23.4675 43.8756 23.2161C43.9412 23.0799 44.0068 22.9436 44.0724 22.8074C44.1646 22.6147 44.2816 22.4334 44.4198 22.2695C44.5027 22.1715 44.5856 22.0735 44.6686 21.9756C44.865 21.7421 45.1079 21.5467 45.3798 21.4044C45.4224 21.3823 45.465 21.3601 45.5076 21.3379C45.6837 21.245 45.8826 21.1937 46.0835 21.1901C46.362 21.1844 46.6433 21.2724 46.8711 21.4387C47.0494 21.5694 47.2276 21.7001 47.4059 21.8308L47.3956 21.8229C47.6048 21.9865 47.8139 22.15 48.0231 22.3136C48.2323 22.4771 48.4416 22.6406 48.6509 22.804C48.8601 22.9674 49.0695 23.1308 49.2788 23.2941C49.7315 23.6487 50.2561 23.9081 50.8091 24.0523C50.9148 24.0797 51.0204 24.1071 51.126 24.1346C51.6324 24.2666 52.1556 24.329 52.6764 24.32C52.6976 24.3196 52.7188 24.3192 52.74 24.3188C53.0087 24.314 53.2773 24.309 53.546 24.304C53.8147 24.299 54.0833 24.2939 54.352 24.2888C54.6207 24.2836 54.8893 24.2784 55.158 24.2732C55.4267 24.2679 55.6953 24.2626 55.964 24.2572C56.2327 24.2518 56.5013 24.2464 56.77 24.2408C57.0387 24.2353 57.3073 24.2297 57.576 24.2241C57.8447 24.2184 58.1133 24.2127 58.382 24.207C58.6507 24.2012 58.9193 24.1954 59.188 24.1895C59.4567 24.1836 59.7253 24.1776 59.994 24.1716C60.2627 24.1655 60.5313 24.1595 60.8 24.1533C61.0687 24.1471 61.3373 24.1409 61.606 24.1346C61.8747 24.1284 62.1433 24.122 62.412 24.1156C62.4345 24.1151 62.457 24.1145 62.4795 24.114C62.7257 24.1081 62.9718 24.1022 63.218 24.0962C63.4867 24.0897 63.7553 24.0831 64.024 24.0764C65.016 24.0518 66.008 24.0263 67 24C66.008 23.9737 65.016 23.9482 64.024 23.9236C63.7553 23.9169 63.4867 23.9103 63.218 23.9038C62.9718 23.8978 62.7257 23.8919 62.4795 23.886C62.457 23.8855 62.4345 23.8849 62.412 23.8844C62.1433 23.878 61.8747 23.8716 61.606 23.8654C61.3373 23.8591 61.0687 23.8529 60.8 23.8467C60.5313 23.8405 60.2627 23.8345 59.994 23.8284C59.7253 23.8224 59.4567 23.8164 59.188 23.8105C58.9193 23.8046 58.6507 23.7988 58.382 23.793C58.1133 23.7873 57.8447 23.7816 57.576 23.7759C57.3073 23.7703 57.0387 23.7647 56.77 23.7592C56.5013 23.7536 56.2327 23.7482 55.964 23.7428C55.6953 23.7374 55.4267 23.7321 55.158 23.7268C54.8893 23.7216 54.6207 23.7164 54.352 23.7112C54.0833 23.7061 53.8147 23.701 53.546 23.696C53.2773 23.691 53.0087 23.686 52.74 23.6812C52.7188 23.6808 52.6976 23.6804 52.6764 23.68C52.2134 23.6712 51.753 23.5993 51.3115 23.4676C51.2069 23.4366 51.1022 23.4056 50.9976 23.3745C50.5414 23.2386 50.1154 23.0092 49.7532 22.7059C49.5492 22.5359 49.3452 22.3659 49.1411 22.196C48.9371 22.0261 48.733 21.8563 48.5289 21.6864C48.3247 21.5166 48.1206 21.3469 47.9164 21.1771L47.9061 21.1692C47.7318 21.0333 47.5574 20.8974 47.383 20.7616C47.0158 20.476 46.5522 20.314 46.0835 20.3099C45.7456 20.3059 45.4063 20.3826 45.1016 20.5325C45.0584 20.5535 45.0153 20.5745 44.9722 20.5956C44.5909 20.7821 44.2459 21.0444 43.9633 21.3634C43.8779 21.4592 43.7926 21.5551 43.7073 21.651C43.5119 21.8713 43.3445 22.1169 43.2107 22.38C43.1419 22.5147 43.0731 22.6493 43.0044 22.7839C42.8775 23.0325 42.7507 23.2811 42.6239 23.5297C42.4972 23.7784 42.3704 24.027 42.2438 24.2757C42.1172 24.5244 41.9906 24.7731 41.8641 25.0219C41.7375 25.2706 41.6111 25.5194 41.4847 25.7682C41.3583 26.017 41.2319 26.2659 41.1057 26.5147C40.9794 26.7636 40.8532 27.0125 40.727 27.2614C40.6009 27.5104 40.4748 27.7593 40.3488 28.0083C40.2227 28.2573 40.0968 28.5063 39.9708 28.7554C39.8449 29.0044 39.7191 29.2535 39.5933 29.5027C39.4971 29.6931 39.401 29.8836 39.3049 30.0741C39.2729 30.1367 39.2309 30.1939 39.181 30.2429C39.1784 30.2456 39.1757 30.2482 39.1731 30.2508C39.0557 30.3671 38.8916 30.4328 38.728 30.4304C38.5644 30.4291 38.4035 30.3597 38.2909 30.2429C38.2883 30.2403 38.2857 30.2376 38.2831 30.2349C38.2351 30.1856 38.1953 30.1287 38.1655 30.067C38.0307 29.7918 37.8959 29.5167 37.7611 29.2415C37.7285 29.1752 37.696 29.1088 37.6635 29.0425C37.4239 28.5535 37.2459 28.0348 37.1349 27.5024C37.0739 27.2105 37.0128 26.9186 36.9517 26.6268C36.8905 26.3349 36.8293 26.0431 36.768 25.7513C36.7067 25.4595 36.6454 25.1677 36.5839 24.8759C36.5225 24.5841 36.4609 24.2923 36.3993 24.0006C36.3377 23.7088 36.2761 23.4171 36.2143 23.1254C36.1525 22.8337 36.0907 22.5419 36.0288 22.2503C35.9916 22.075 35.9544 21.8998 35.9171 21.7246C35.8924 21.6081 35.8676 21.4917 35.8428 21.3753L35.8383 21.3556C35.6728 20.689 35.507 20.0224 35.3407 19.356L35.3455 19.3768C35.2684 19.0247 35.1934 18.693 35.0821 18.3244C34.862 17.6476 34.5902 17.0794 34.2961 16.4833L34.2614 16.4237C34.1763 16.2958 34.0911 16.1679 34.006 16.0401C33.7521 15.6522 33.2962 15.4087 32.8337 15.4129C32.2693 15.4088 31.7394 15.7755 31.5322 16.2854C31.2621 16.9348 30.964 17.6035 30.7416 18.3301C30.0137 20.7395 29.8508 23.1892 28.8427 25.2712C28.5754 25.8289 28.2196 26.3336 27.794 26.8082C27.6855 26.9338 27.5095 27.014 27.32 27.0171C27.1336 27.0214 26.9452 26.948 26.8095 26.8157C26.76 26.767 26.7105 26.7183 26.661 26.6696L26.6954 26.7084C26.5276 26.5023 26.3595 26.2958 26.1915 26.0897C26.0234 25.8833 25.8556 25.6774 25.6874 25.4712C25.5191 25.2649 25.3512 25.0591 25.1829 24.8529C25.0146 24.6467 24.8465 24.441 24.6781 24.2349C24.5097 24.0287 24.3416 23.8231 24.173 23.6171C24.0047 23.4113 23.8361 23.2052 23.6677 22.9995C23.4992 22.7937 23.3306 22.5879 23.162 22.3821C23.1339 22.3478 23.1058 22.3135 23.0776 22.2792C22.7448 21.8658 22.2196 21.6217 21.6952 21.6314C21.4236 21.6347 21.154 21.7028 20.9147 21.8277C20.6834 21.9492 20.4522 22.0707 20.2209 22.1924C19.8932 22.3648 19.5654 22.5373 19.2378 22.7099C18.9101 22.8825 18.5825 23.0552 18.2549 23.228C18.1377 23.2899 18.0205 23.3517 17.9032 23.4136C17.5317 23.6111 17.1116 23.721 16.6867 23.7299C16.5938 23.7317 16.5009 23.7335 16.408 23.7354C16.0773 23.7419 15.7467 23.7486 15.416 23.7554C15.0853 23.7621 14.7547 23.769 14.424 23.7759C14.0933 23.7829 13.7627 23.7899 13.432 23.797C13.1013 23.8042 12.7707 23.8114 12.44 23.8188C12.1093 23.8261 11.7787 23.8335 11.448 23.841C11.1173 23.8486 10.7867 23.8562 10.456 23.8639C10.1442 23.8712 9.83231 23.8785 9.52046 23.886C9.50164 23.8864 9.48282 23.8869 9.464 23.8874C9.13333 23.8953 8.80267 23.9033 8.472 23.9114C8.14133 23.9195 7.81067 23.9277 7.48 23.936C7.14933 23.9443 6.81867 23.9527 6.488 23.9611C5.992 23.9739 5.496 23.9868 5 24Z" fill="url(#paint1_linear_67_972)"/>
<defs>
<linearGradient id="paint0_linear_67_972" x1="0" y1="7" x2="71" y2="7" gradientUnits="userSpaceOnUse">
<stop stop-color="#00EEFF"/>
<stop offset="0.5" stop-color="#4050FF"/>
<stop offset="1" stop-color="#D901FF"/>
</linearGradient>
<linearGradient id="paint1_linear_67_972" x1="5" y1="23.5" x2="67" y2="23.5" gradientUnits="userSpaceOnUse">
<stop stop-color="#00EEFF"/>
<stop offset="0.5" stop-color="#4050FF"/>
<stop offset="1" stop-color="#D901FF"/>
</linearGradient>
</defs>
</svg>
